<svg width="32" height="32" viewBox="0 0 32 32" fill="none" xmlns="http://www.w3.org/2000/svg">
<g id="&#240;&#159;&#166;&#134; icon &#34;Facebook v1&#34;">
<path id="Vector" d="M16 32C24.8366 32 32 24.8366 32 16C32 7.16344 24.8366 0 16 0C7.16344 0 0 7.16344 0 16C0 24.8366 7.16344 32 16 32Z" fill="#3C5A99"/>
<path id="Vector_2" d="M17.2438 23.9999V16.7124H19.7L20.0688 13.8593H17.2438V12.0437C17.2438 11.2187 17.4719 10.6593 18.6531 10.6593H20.15V8.11555C19.8906 8.08118 18.9969 8.00305 17.9563 8.00305C15.7844 8.00305 14.2969 9.32805 14.2969 11.7624V13.8624H11.85V16.7156H14.2969V23.9999H17.2438Z" fill="white"/>
</g>
</svg>
